<?xml version="1.0" encoding="UTF-8"?>
<svg id="Layer_1" xmlns="http://www.w3.org/2000/svg" version="1.1" viewBox="0 0 285.52 98.93">
  <!-- Generator: Adobe Illustrator 29.5.1, SVG Export Plug-In . SVG Version: 2.1.0 Build 141)  -->
  <defs>
    <style>
      .st0 {
        stroke: #cba259;
        stroke-miterlimit: 10;
      }

      .st0, .st1 {
        fill: #cba259;
        fill-rule: evenodd;
      }
    </style>
  </defs>
  <g>
    <path class="st0" d="M262.64,95.75c-.46,0-.75-.03-.89-.09-.13-.06-.2-.18-.2-.36,0-.24.33-.37,1-.41.66-.04,1.15-.09,1.46-.16.84-.2,1.42-.63,1.71-1.28.31-.64.45-2.04.45-4.18v-11.43c0-2.13-.15-3.52-.45-4.16-.3-.64-.88-1.07-1.71-1.27-.29-.07-.77-.12-1.44-.17-.68-.04-1.02-.19-1.02-.45,0-.17.07-.28.2-.34.14-.06.43-.09.89-.09h10.43c1.71,0,3-.04,3.87-.11.87-.08,1.5-.21,1.89-.4.33-.16.6-.39.81-.72.22-.32.38-.48.5-.48.2,0,.38.19.54.57.02.06.04.11.05.13l2.75,6.58c.06.18.11.31.13.41.02.09.03.17.03.25,0,.11-.02.2-.05.25-.04.06-.1.09-.18.09-.22,0-.59-.37-1.12-1.1-.52-.73-1.11-1.37-1.76-1.92-1.07-.89-2.24-1.58-3.53-2.06-1.29-.48-2.59-.72-3.89-.72-1.45,0-2.46.31-3.04.94-.58.63-.86,1.73-.86,3.32v5.83h4.32c1.23,0,2.19-.24,2.87-.73.69-.49,1.13-1.24,1.32-2.25.05-.25.08-.58.1-.99.05-.67.19-1.01.44-1.01.17,0,.29.06.35.19.07.12.11.42.11.88v9.11c0,.47-.03.77-.09.91-.06.13-.18.2-.36.2-.23,0-.37-.31-.42-.92-.05-.4-.09-.71-.12-.94-.24-1.28-.71-2.22-1.43-2.8-.72-.58-1.76-.87-3.11-.87h-3.97v7.29c0,1.92.34,3.18,1.01,3.75.68.58,1.99.86,3.93.86,1.55,0,2.91-.23,4.06-.68,1.16-.45,2.27-1.18,3.35-2.2.8-.76,1.49-1.57,2.07-2.44.57-.86.96-1.3,1.14-1.3.09,0,.16.03.2.09.04.06.06.14.06.25,0,.1-.01.2-.04.31-.03.11-.07.23-.12.36l-3.98,8.59s-.03.06-.05.12c-.14.29-.29.43-.43.43-.17,0-.31-.19-.43-.58-.12-.38-.29-.69-.53-.93-.41-.42-1.03-.73-1.88-.9-.84-.18-2.1-.27-3.75-.27h-11.15ZM239.12,88.45c0,1.9.22,3.34.67,4.33.45.99,1.15,1.62,2.12,1.9.25.08.64.14,1.21.2.56.05.84.19.84.42,0,.18-.07.29-.2.35-.14.06-.43.09-.9.09h-7.88c-.47,0-.77-.03-.9-.09-.13-.06-.2-.18-.2-.35,0-.22.23-.34.68-.39.45-.04.79-.11.99-.18.85-.33,1.5-1.02,1.95-2.09.45-1.07.67-2.44.67-4.12v-15.55c-.84-.35-1.73-.58-2.67-.69-.95-.1-1.41-.27-1.41-.5,0-.16.06-.27.2-.33.12-.07.36-.11.7-.11h5.34c1.12,0,1.78.22,1.95.64.17.39.36.74.56,1.04l11.74,17.74v-12.11c0-1.9-.22-3.35-.67-4.34-.45-.98-1.17-1.62-2.15-1.91-.24-.07-.63-.13-1.17-.19-.54-.05-.81-.2-.81-.43,0-.17.06-.28.18-.35.12-.06.41-.09.88-.09h7.93c.45,0,.74.04.88.11.12.07.19.18.19.34,0,.22-.23.36-.69.41-.46.04-.79.1-.99.18-.85.31-1.5,1.01-1.94,2.07-.45,1.08-.67,2.45-.67,4.14v13.42c.52.68,1.18,1.11,2,1.28.82.17,1.23.31,1.23.4,0,.11-.21.27-.64.47-.42.2-.82.45-1.17.74-.43.33-.83.71-1.19,1.14-.36.43-.59.64-.7.64-.07,0-.17-.06-.31-.19-.14-.12-.28-.29-.41-.5l-15.2-22.59v15.06ZM227.43,89.28c0,2.14.15,3.54.45,4.18.3.65.87,1.07,1.69,1.26.32.09.82.15,1.48.18.67.02,1,.16,1,.41,0,.18-.07.29-.19.35-.12.06-.42.09-.86.09h-10.12c-.46,0-.75-.04-.88-.1-.13-.07-.2-.18-.2-.35.01-.25.34-.39,1-.41.66-.03,1.15-.08,1.46-.16.82-.2,1.38-.62,1.68-1.25.3-.64.45-2.04.45-4.21v-11.43c0-2.17-.15-3.56-.45-4.19-.3-.63-.86-1.04-1.68-1.24-.3-.08-.79-.14-1.46-.18-.67-.04-1-.19-1-.45,0-.16.06-.27.2-.34.12-.07.42-.11.88-.11h10.12c.46,0,.75.03.88.09.12.06.18.17.18.35,0,.25-.38.39-1.13.45-.44.02-.8.06-1.07.1-.94.16-1.58.57-1.92,1.22-.34.66-.52,2.08-.52,4.27v11.43ZM204.58,89.27c0,2.15.15,3.53.45,4.18.31.65.88,1.07,1.72,1.27.34.08.86.13,1.59.16.72.02,1.08.16,1.08.42,0,.18-.06.3-.2.36-.12.06-.42.09-.86.09h-10.34c-.46,0-.75-.03-.89-.09-.13-.06-.2-.18-.2-.36,0-.23.33-.38,1-.41.66-.03,1.16-.09,1.46-.17.84-.2,1.41-.62,1.71-1.27.31-.65.45-2.04.45-4.18v-11.43c0-2.12-.15-3.51-.45-4.16-.3-.64-.88-1.06-1.71-1.26-.29-.07-.77-.13-1.45-.17-.68-.05-1.02-.19-1.02-.45,0-.17.07-.28.2-.35.14-.06.44-.09.89-.09h10.75c1.69,0,3.02.09,4,.25.98.16,1.84.44,2.58.84.96.52,1.71,1.23,2.27,2.12.54.89.82,1.85.82,2.89,0,1.97-.83,3.53-2.49,4.69-1.66,1.15-3.92,1.73-6.78,1.73-.69,0-1.95-.07-3.75-.2-.38-.04-.66-.06-.84-.07v5.66ZM204.58,82.68c.59.07,1.14.11,1.64.15.5.04.97.05,1.41.05,2.34,0,4.12-.47,5.35-1.4,1.24-.93,1.86-2.27,1.86-4.03s-.51-3.01-1.54-3.86c-1.02-.85-2.57-1.28-4.65-1.28-1.48,0-2.52.28-3.14.85-.62.56-.93,1.56-.93,2.97v6.55ZM175.77,93.32c-1.1,1.09-2.23,1.89-3.4,2.39-1.18.5-2.48.75-3.93.75-2.37,0-4.29-.69-5.76-2.05-1.48-1.37-2.21-3.13-2.21-5.29,0-1.6.45-2.98,1.35-4.16.9-1.17,2.31-2.23,4.23-3.15-.86-1.07-1.5-2.08-1.91-3.03-.42-.95-.62-1.89-.62-2.81,0-1.5.55-2.76,1.65-3.76,1.1-1.01,2.5-1.51,4.21-1.51,1.5,0,2.73.43,3.69,1.29.97.86,1.45,1.95,1.45,3.26,0,1.16-.43,2.22-1.28,3.18-.86.96-2.19,1.88-4,2.76l7.54,8.95c.4-.7.7-1.36.89-1.95.19-.6.29-1.18.29-1.72,0-.7-.29-1.27-.85-1.69-.57-.43-1.34-.64-2.3-.64-.49,0-.84-.03-1.04-.11-.2-.07-.3-.19-.3-.35s.07-.28.19-.34c.13-.06.43-.09.91-.09h9.22c.47,0,.76.03.9.09.13.06.2.18.2.34-.01.26-.41.4-1.2.43-.79.03-1.41.11-1.87.26-1.11.36-2.27,1.93-3.5,4.7-.36.8-.64,1.42-.86,1.86,1.34,1.59,2.45,2.66,3.34,3.19.89.53,2.3.79,4.24.79.25,0,.43.04.56.12.13.08.19.2.19.36,0,.12-.05.2-.15.25-.1.06-.29.09-.57.09h-6.48c-.38,0-.66-.06-.84-.18-.18-.12-.43-.38-.77-.77l-1.24-1.47ZM175.12,92.56l-8.51-10.11c-.98.46-1.76,1.2-2.33,2.24-.57,1.03-.86,2.23-.86,3.58,0,1.98.6,3.65,1.78,5,1.18,1.36,2.66,2.03,4.43,2.03.99,0,1.94-.23,2.83-.68.9-.44,1.79-1.13,2.66-2.07ZM168.73,80.55c1.27-.67,2.23-1.5,2.91-2.5.67-1,1.01-2.09,1.01-3.25,0-1-.3-1.81-.91-2.42-.61-.61-1.41-.91-2.38-.91s-1.85.34-2.51,1.03c-.66.69-.99,1.57-.99,2.64,0,.68.2,1.4.58,2.16.38.76,1.15,1.85,2.3,3.27ZM128.15,95.75c-.46,0-.76-.03-.89-.09-.13-.06-.2-.18-.2-.36,0-.24.33-.37,1-.41.66-.04,1.16-.09,1.46-.16.84-.21,1.41-.63,1.71-1.28.31-.65.45-2.05.45-4.19v-11.42c0-2.12-.15-3.51-.45-4.16-.3-.64-.88-1.06-1.71-1.26-.29-.07-.77-.13-1.44-.17-.68-.04-1.02-.19-1.02-.45,0-.17.07-.28.2-.35.14-.06.43-.09.89-.09h10.4c.47,0,.76.03.9.09.13.06.2.17.2.35-.01.27-.38.42-1.12.45-.74.03-1.29.09-1.66.18-.84.21-1.41.64-1.71,1.28-.3.64-.45,2.02-.45,4.14v12.44c0,1.83.31,3.05.92,3.66.62.61,1.75.91,3.4.91,1.34,0,2.57-.23,3.7-.7,1.12-.47,2.22-1.21,3.31-2.21.77-.73,1.43-1.52,2-2.36.57-.85.93-1.27,1.08-1.27.09,0,.17.04.23.12.07.09.1.19.1.31,0,.03-.03.12-.1.27-.05.11-.1.21-.13.29l-3.99,8.58s-.03.09-.07.15c-.12.27-.27.4-.44.4-.15,0-.28-.19-.41-.59-.12-.39-.3-.7-.53-.92-.41-.42-1.04-.73-1.89-.9-.84-.18-2.07-.27-3.7-.27h-10.05ZM101.22,83.57c0-3.76,1.11-6.86,3.34-9.27,2.23-2.42,5.08-3.62,8.55-3.62s6.38,1.21,8.6,3.62c2.23,2.42,3.35,5.51,3.35,9.27s-1.12,6.84-3.35,9.26c-2.24,2.43-5.1,3.64-8.59,3.64s-6.33-1.21-8.55-3.62c-2.23-2.42-3.34-5.51-3.34-9.27ZM104.96,83.57c0,4.25.64,7.32,1.93,9.19,1.28,1.88,3.36,2.81,6.23,2.81s4.97-.95,6.26-2.83c1.3-1.89,1.94-4.95,1.94-9.18s-.64-7.32-1.94-9.21c-1.29-1.89-3.39-2.83-6.26-2.83s-4.93.94-6.23,2.82c-1.29,1.88-1.93,4.95-1.93,9.22ZM81.06,78.29c-.69-1.9-1.28-3.23-1.76-4-.48-.77-1.02-1.3-1.61-1.59-.43-.21-.95-.36-1.54-.44-.59-.09-.89-.24-.89-.46,0-.13.07-.23.22-.31.15-.07.36-.12.66-.13h10.37c.3,0,.54.04.69.12.16.07.24.18.24.32,0,.17-.09.29-.28.35-.19.07-.64.12-1.36.14-.97.03-1.67.19-2.1.48-.43.29-.65.74-.65,1.34,0,.23.03.48.09.75.07.27.16.59.28.93l5.7,15.78,4.97-12.54c.36-.92.64-1.73.82-2.44.19-.71.28-1.28.28-1.71,0-.72-.21-1.29-.6-1.73-.4-.44-1-.72-1.77-.85-.14-.02-.31-.05-.54-.07-.5-.06-.76-.19-.77-.42,0-.14.08-.25.25-.32.16-.08.39-.12.69-.12h7.64c.3,0,.52.04.67.11.16.07.23.18.23.33,0,.2-.25.35-.74.46-.49.11-.87.25-1.14.43-.67.44-1.35,1.2-2.04,2.3-.69,1.09-1.4,2.54-2.13,4.34l-5.21,12.96c.38.48.81.83,1.3,1.05.49.22.73.38.73.49,0,.16-.22.34-.67.53-.45.19-.8.36-1.06.55-.46.32-.88.73-1.25,1.23-.38.5-.61.76-.69.76-.2,0-.42-.32-.66-.97-.02-.05-.03-.09-.03-.1l-6.35-17.52ZM51.76,83.57c0-3.76,1.12-6.86,3.34-9.27,2.23-2.42,5.08-3.62,8.55-3.62s6.38,1.21,8.6,3.62c2.23,2.42,3.34,5.51,3.34,9.27s-1.12,6.84-3.35,9.26c-2.24,2.43-5.1,3.64-8.59,3.64s-6.33-1.21-8.55-3.62c-2.23-2.42-3.34-5.51-3.34-9.27ZM55.5,83.57c0,4.25.64,7.32,1.93,9.19,1.28,1.88,3.36,2.81,6.23,2.81s4.97-.95,6.26-2.83c1.3-1.89,1.95-4.95,1.95-9.18s-.65-7.32-1.95-9.21c-1.29-1.89-3.39-2.83-6.26-2.83s-4.93.94-6.23,2.82c-1.29,1.88-1.93,4.95-1.93,9.22ZM34.09,89.27c0,2.13.16,3.52.48,4.18.32.66.91,1.09,1.77,1.27.34.09.86.15,1.55.18.69.02,1.04.16,1.04.41,0,.18-.07.29-.2.35-.14.06-.45.09-.93.09h-10.27c-.46,0-.75-.03-.89-.09-.13-.06-.2-.18-.2-.35,0-.23.33-.37,1-.4.66-.04,1.16-.09,1.46-.16.84-.2,1.41-.62,1.72-1.28.3-.64.45-2.04.45-4.19v-11.43c0-2.13-.15-3.51-.45-4.16-.3-.64-.87-1.07-1.72-1.27-.28-.07-.77-.12-1.44-.16-.68-.05-1.02-.19-1.02-.46,0-.17.07-.28.2-.34.14-.06.44-.09.89-.09h10.75c1.69,0,3.02.09,4,.25.98.16,1.84.44,2.58.84.96.52,1.72,1.23,2.27,2.1.54.87.82,1.82.82,2.85,0,1.8-.73,3.27-2.19,4.43-1.46,1.16-3.39,1.78-5.79,1.85l4.42,7.73c.45.79.94,1.44,1.47,1.94.52.51,1.12.9,1.8,1.17.52.21,1.1.35,1.74.42.64.07.96.21.96.39,0,.12-.07.22-.21.3-.14.08-.32.12-.54.12h-5.45c-.41,0-.84-.38-1.29-1.13-.07-.11-.12-.2-.15-.27l-6.22-10.57h-2.39v5.49ZM39.48,82.75c1.49-.07,2.68-.59,3.55-1.57.88-.98,1.32-2.27,1.32-3.86s-.52-2.92-1.56-3.78c-1.03-.86-2.55-1.3-4.56-1.3-1.5,0-2.56.29-3.19.85-.64.57-.95,1.57-.95,2.98v6.87c.1,0,.25,0,.43.02.2.01.33.02.42.02.74,0,1.35-.09,1.84-.26.49-.18.91-.45,1.28-.84.25-.25.47-.62.66-1.09.2-.47.38-.7.54-.7.09,0,.16.04.21.11.04.07.06.18.06.31,0,.04,0,.09-.02.15-.01.06-.02.12-.02.15l-.1.65v.45c0,.22,0,.39.02.5.01.11.03.21.05.32ZM22.22,87.86v3.98c0,.83.13,1.66.39,2.5.06.2.09.32.09.38,0,.09-.02.15-.06.2-.04.05-.11.07-.19.07-.05,0-.26-.07-.61-.21-.35-.14-.7-.2-1.06-.2-.43,0-1.62.31-3.54.92-1.93.62-3.68.93-5.26.93-3.41,0-6.17-1.16-8.29-3.48-2.11-2.33-3.17-5.36-3.17-9.11s1.11-7.07,3.33-9.53c2.23-2.47,5.06-3.71,8.5-3.71.76,0,1.62.11,2.59.31.97.21,1.56.31,1.77.31.7,0,1.21-.28,1.52-.84.31-.56.49-.84.53-.84.12,0,.23.05.32.13.09.09.16.23.24.41l2.95,7.24c.04.09.06.15.06.18,0,.04,0,.07,0,.11,0,.12-.03.21-.09.29-.05.07-.14.11-.25.11-.16,0-.51-.37-1.07-1.12-.43-.56-.79-1.03-1.09-1.41-.97-1.21-2.12-2.16-3.44-2.86-1.32-.7-2.64-1.06-3.96-1.06-2.72,0-4.8,1.15-6.24,3.45-1.43,2.3-2.16,5.63-2.16,10,0,3.35.71,5.94,2.14,7.78,1.42,1.83,3.42,2.75,5.99,2.75,2.3,0,4.07-.59,5.31-1.77,1.24-1.18,1.86-2.88,1.86-5.09,0-1.49-.2-2.54-.61-3.14-.41-.61-1.11-1-2.11-1.15-.29-.05-.69-.08-1.19-.11-.81-.04-1.21-.19-1.21-.45,0-.16.06-.26.18-.32.12-.06.46-.09,1.02-.09h9.91c.43,0,.7.03.8.09.1.06.15.16.15.32,0,.27-.36.42-1.09.47-.27.02-.47.04-.58.05-.83.11-1.44.45-1.83,1.02-.39.57-.58,1.4-.58,2.48Z"/>
    <path class="st1" d="M142.72,4c-2.5,2.31-4.54,4.71-4.57,7.58l2.24,1.41,2.34-1.72,2.34,1.72,2.24-1.41c-.04-2.86-2.07-5.27-4.57-7.58ZM142.72,15.64c-2.5,2.31-4.54,4.72-4.57,7.58l2.24,1.41,2.34-1.72,2.34,1.72,2.24-1.41c-.04-2.86-2.07-5.27-4.57-7.58ZM142.76,27.07c-2.63,2.29-4.62,4.97-5.17,8.51,2.18.61,3.95,1.95,5.17,4.29,1.23-2.34,3-3.68,5.17-4.29-.55-3.54-2.54-6.22-5.17-8.51ZM140.96,53.78h3.6v-3.6h-3.6v3.6ZM144.47,47.14h6.23c4.31,0,7.84-3.53,7.84-7.84v-1.41h-6.23c-4.32,0-7.85,3.53-7.85,7.85v1.41ZM147.39,27.04c1.97,2.09,2.98,4.58,3.37,7.33,4.02-1.47,6-4.3,5.54-8.76-4.21-.33-7.4,0-8.9,1.44ZM147.17,15.56c1.73,1.75,2.86,3.73,3.31,5.97,2.58-1.5,3.91-4.04,3.83-7.72-2.76-.37-5.12.26-7.14,1.75ZM141.05,47.14h-6.24c-4.31,0-7.84-3.53-7.84-7.84v-1.41h6.23c4.31,0,7.84,3.53,7.84,7.85v1.41ZM138.12,27.04c-1.97,2.09-2.98,4.58-3.36,7.33-4.02-1.47-6-4.3-5.54-8.76,4.21-.33,7.39,0,8.9,1.44ZM137.79,56.91h9.93v-6.67h3.11c6.05,0,11-4.95,11-11v-4.58h-5.41c2.07-2,3.36-4.81,3.36-7.89v-4.58h-4.69c1.79-1.92,2.89-4.49,2.89-7.31v-4.46h-7.43c-.58-4.54-3.79-7.71-7.92-10.41-4.14,2.92-7.19,6.24-7.86,10.41h-7.25v4.46c0,2.82,1.1,5.39,2.9,7.31h-4.7v4.58c0,3.09,1.29,5.89,3.36,7.89h-5.41v4.58c0,6.05,4.95,11,11,11h3.11v6.67ZM138.34,15.56c-1.73,1.75-2.86,3.73-3.31,5.97-2.58-1.5-3.91-4.04-3.83-7.72,2.76-.37,5.12.26,7.14,1.75Z"/>
  </g>
  <path class="st1" d="M216.42-153.25c-.46,0-.75-.03-.89-.09-.13-.06-.2-.18-.2-.36,0-.24.33-.37,1-.41.66-.04,1.15-.09,1.46-.16.84-.2,1.42-.63,1.71-1.28.31-.64.45-2.04.45-4.18v-11.43c0-2.13-.15-3.52-.45-4.16-.3-.64-.88-1.07-1.71-1.27-.29-.07-.77-.12-1.44-.17-.68-.04-1.02-.19-1.02-.45,0-.17.07-.28.2-.34.14-.06.43-.09.89-.09h10.43c1.71,0,3-.04,3.87-.11.87-.08,1.5-.21,1.89-.4.33-.16.6-.39.81-.72.22-.32.38-.48.5-.48.2,0,.38.19.54.57.02.06.04.11.05.13l2.75,6.58c.06.18.11.31.13.41.02.09.03.17.03.25,0,.11-.02.2-.05.25-.04.06-.1.09-.18.09-.22,0-.59-.37-1.12-1.1-.52-.73-1.11-1.37-1.76-1.92-1.07-.89-2.24-1.58-3.53-2.06-1.29-.48-2.59-.72-3.89-.72-1.45,0-2.46.31-3.04.94-.58.63-.86,1.73-.86,3.32v5.83h4.32c1.23,0,2.19-.24,2.87-.73.69-.49,1.13-1.24,1.32-2.25.05-.25.08-.58.1-.99.05-.67.19-1.01.44-1.01.17,0,.29.06.35.19.07.12.11.42.11.88v9.11c0,.47-.03.77-.09.91-.06.13-.18.2-.36.2-.23,0-.37-.31-.42-.92-.05-.4-.09-.71-.12-.94-.24-1.28-.71-2.22-1.43-2.8-.72-.58-1.76-.87-3.11-.87h-3.97v7.29c0,1.92.34,3.18,1.01,3.75.68.58,1.99.86,3.93.86,1.55,0,2.91-.23,4.06-.68,1.16-.45,2.27-1.18,3.35-2.2.8-.76,1.49-1.57,2.07-2.44.57-.86.96-1.3,1.14-1.3.09,0,.16.03.2.09.04.06.06.14.06.25,0,.1-.01.2-.04.31-.03.11-.07.23-.12.36l-3.98,8.59s-.03.06-.05.12c-.14.29-.29.43-.43.43-.17,0-.31-.19-.43-.58-.12-.38-.29-.69-.53-.93-.41-.42-1.03-.73-1.88-.9-.84-.18-2.1-.27-3.75-.27h-11.15ZM192.9-160.55c0,1.9.22,3.34.67,4.33.45.99,1.15,1.62,2.12,1.9.25.08.64.14,1.21.2.56.05.84.19.84.42,0,.18-.07.29-.2.35-.14.06-.43.09-.9.09h-7.88c-.47,0-.77-.03-.9-.09-.13-.06-.2-.18-.2-.35,0-.22.23-.34.68-.39.45-.04.79-.11.99-.18.85-.33,1.5-1.02,1.95-2.09.45-1.07.67-2.44.67-4.12v-15.55c-.84-.35-1.73-.58-2.67-.69-.95-.1-1.41-.27-1.41-.5,0-.16.06-.27.2-.33.12-.07.36-.11.7-.11h5.34c1.12,0,1.78.22,1.95.64.17.39.36.74.56,1.04l11.74,17.74v-12.11c0-1.9-.22-3.35-.67-4.34-.45-.98-1.17-1.62-2.15-1.91-.24-.07-.63-.13-1.17-.19-.54-.05-.81-.2-.81-.43,0-.17.06-.28.18-.35.12-.06.41-.09.88-.09h7.93c.45,0,.74.04.88.11.12.07.19.18.19.34,0,.22-.23.36-.69.41-.46.04-.79.1-.99.18-.85.31-1.5,1.01-1.94,2.07-.45,1.08-.67,2.45-.67,4.14v13.42c.52.68,1.18,1.11,2,1.28.82.17,1.23.31,1.23.4,0,.11-.21.27-.64.47-.42.2-.82.45-1.17.74-.43.33-.83.71-1.19,1.14-.36.43-.59.64-.7.64-.07,0-.17-.06-.31-.19-.14-.12-.28-.29-.41-.5l-15.2-22.59v15.06ZM181.21-159.73c0,2.14.15,3.54.45,4.18.3.65.87,1.07,1.69,1.26.32.09.82.15,1.48.18.67.02,1,.16,1,.41,0,.18-.07.29-.19.35-.12.06-.42.09-.86.09h-10.12c-.46,0-.75-.04-.88-.1-.13-.07-.2-.18-.2-.35.01-.25.34-.39,1-.41.66-.03,1.15-.08,1.46-.16.82-.2,1.38-.62,1.68-1.25.3-.64.45-2.04.45-4.21v-11.43c0-2.17-.15-3.56-.45-4.19-.3-.63-.86-1.04-1.68-1.24-.3-.08-.79-.14-1.46-.18-.67-.04-1-.19-1-.45,0-.16.06-.27.2-.34.12-.07.42-.11.88-.11h10.12c.46,0,.75.03.88.09.12.06.18.17.18.35,0,.25-.38.39-1.13.45-.44.02-.8.06-1.07.1-.94.16-1.58.57-1.92,1.22-.34.66-.52,2.08-.52,4.27v11.43ZM158.36-159.74c0,2.15.15,3.53.45,4.18.31.65.88,1.07,1.72,1.27.34.08.86.13,1.59.16.72.02,1.08.16,1.08.42,0,.18-.06.3-.2.36-.12.06-.42.09-.86.09h-10.34c-.46,0-.75-.03-.89-.09-.13-.06-.2-.18-.2-.36,0-.23.33-.38,1-.41.66-.03,1.16-.09,1.46-.17.84-.2,1.41-.62,1.71-1.27.31-.65.45-2.04.45-4.18v-11.43c0-2.12-.15-3.51-.45-4.16-.3-.64-.88-1.06-1.71-1.26-.29-.07-.77-.13-1.45-.17-.68-.05-1.02-.19-1.02-.45,0-.17.07-.28.2-.35.14-.06.44-.09.89-.09h10.75c1.69,0,3.02.09,4,.25.98.16,1.84.44,2.58.84.96.52,1.71,1.23,2.27,2.12.54.89.82,1.85.82,2.89,0,1.97-.83,3.53-2.49,4.69-1.66,1.15-3.92,1.73-6.78,1.73-.69,0-1.95-.07-3.75-.2-.38-.04-.66-.06-.84-.07v5.66ZM158.36-166.32c.59.07,1.14.11,1.64.15.5.04.97.05,1.41.05,2.34,0,4.12-.47,5.35-1.4,1.24-.93,1.86-2.27,1.86-4.03s-.51-3.01-1.54-3.86c-1.02-.85-2.57-1.28-4.65-1.28-1.48,0-2.52.28-3.14.85-.62.56-.93,1.56-.93,2.97v6.55ZM129.55-155.68c-1.1,1.09-2.23,1.89-3.4,2.39-1.18.5-2.48.75-3.93.75-2.37,0-4.29-.69-5.76-2.05-1.48-1.37-2.21-3.13-2.21-5.29,0-1.6.45-2.98,1.35-4.16.9-1.17,2.31-2.23,4.23-3.15-.86-1.07-1.5-2.08-1.91-3.03-.42-.95-.62-1.89-.62-2.81,0-1.5.55-2.76,1.65-3.76,1.1-1.01,2.5-1.51,4.21-1.51,1.5,0,2.73.43,3.69,1.29.97.86,1.45,1.95,1.45,3.26,0,1.16-.43,2.22-1.28,3.18-.86.96-2.19,1.88-4,2.76l7.54,8.95c.4-.7.7-1.36.89-1.95.19-.6.29-1.18.29-1.72,0-.7-.29-1.27-.85-1.69-.57-.43-1.34-.64-2.3-.64-.49,0-.84-.03-1.04-.11-.2-.07-.3-.19-.3-.35s.07-.28.19-.34c.13-.06.43-.09.91-.09h9.22c.47,0,.76.03.9.09.13.06.2.18.2.34-.01.26-.41.4-1.2.43-.79.03-1.41.11-1.87.26-1.11.36-2.27,1.93-3.5,4.7-.36.8-.64,1.42-.86,1.86,1.34,1.59,2.45,2.66,3.34,3.19.89.53,2.3.79,4.24.79.25,0,.43.04.56.12.13.08.19.2.19.36,0,.12-.05.2-.15.25-.1.06-.29.09-.57.09h-6.48c-.38,0-.66-.06-.84-.18-.18-.12-.43-.38-.77-.77l-1.24-1.47ZM128.9-156.44l-8.51-10.11c-.98.46-1.76,1.2-2.33,2.24-.57,1.03-.86,2.23-.86,3.58,0,1.98.6,3.65,1.78,5,1.18,1.36,2.66,2.03,4.43,2.03.99,0,1.94-.23,2.83-.68.9-.44,1.79-1.13,2.66-2.07ZM122.51-168.45c1.27-.67,2.23-1.5,2.91-2.5.67-1,1.01-2.09,1.01-3.25,0-1-.3-1.81-.91-2.42-.61-.61-1.41-.91-2.38-.91s-1.85.34-2.51,1.03c-.66.69-.99,1.57-.99,2.64,0,.68.2,1.4.58,2.16.38.76,1.15,1.85,2.3,3.27ZM81.93-153.25c-.46,0-.76-.03-.89-.09-.13-.06-.2-.18-.2-.36,0-.24.33-.37,1-.41.66-.04,1.16-.09,1.46-.16.84-.21,1.41-.63,1.71-1.28.31-.65.45-2.05.45-4.19v-11.42c0-2.12-.15-3.51-.45-4.16-.3-.64-.88-1.06-1.71-1.26-.29-.07-.77-.13-1.44-.17-.68-.04-1.02-.19-1.02-.45,0-.17.07-.28.2-.35.14-.06.43-.09.89-.09h10.4c.47,0,.76.03.9.09.13.06.2.17.2.35-.01.27-.38.42-1.12.45-.74.03-1.29.09-1.66.18-.84.21-1.41.64-1.71,1.28-.3.64-.45,2.02-.45,4.14v12.44c0,1.83.31,3.05.92,3.66.62.61,1.75.91,3.4.91,1.34,0,2.57-.23,3.7-.7,1.12-.47,2.22-1.21,3.31-2.21.77-.73,1.43-1.52,2-2.36.57-.85.93-1.27,1.08-1.27.09,0,.17.04.23.12.07.09.1.19.1.31,0,.03-.03.12-.1.27-.05.11-.1.21-.13.29l-3.99,8.58s-.03.09-.07.15c-.12.27-.27.4-.44.4-.15,0-.28-.19-.41-.59-.12-.39-.3-.7-.53-.92-.41-.42-1.04-.73-1.89-.9-.84-.18-2.07-.27-3.7-.27h-10.05ZM55-165.43c0-3.76,1.11-6.86,3.34-9.27,2.23-2.42,5.08-3.62,8.55-3.62s6.38,1.21,8.6,3.62c2.23,2.42,3.35,5.51,3.35,9.27s-1.12,6.84-3.35,9.26c-2.24,2.43-5.1,3.64-8.59,3.64s-6.33-1.21-8.55-3.62c-2.23-2.42-3.34-5.51-3.34-9.27ZM58.74-165.43c0,4.25.64,7.32,1.93,9.19,1.28,1.88,3.36,2.81,6.23,2.81s4.97-.95,6.26-2.83c1.3-1.89,1.94-4.95,1.94-9.18s-.64-7.32-1.94-9.21c-1.29-1.89-3.39-2.83-6.26-2.83s-4.93.94-6.23,2.82c-1.29,1.88-1.93,4.95-1.93,9.22ZM34.83-170.71c-.69-1.9-1.28-3.23-1.76-4-.48-.77-1.02-1.3-1.61-1.59-.43-.21-.95-.36-1.54-.44-.59-.09-.89-.24-.89-.46,0-.13.07-.23.22-.31.15-.07.36-.12.66-.13h10.37c.3,0,.54.04.69.12.16.07.24.18.24.32,0,.17-.09.29-.28.35-.19.07-.64.12-1.36.14-.97.03-1.67.19-2.1.48-.43.29-.65.74-.65,1.34,0,.23.03.48.09.75.07.27.16.59.28.93l5.7,15.78,4.97-12.54c.36-.92.64-1.73.82-2.44.19-.71.28-1.28.28-1.71,0-.72-.21-1.29-.6-1.73-.4-.44-1-.72-1.77-.85-.14-.02-.31-.05-.54-.07-.5-.06-.76-.19-.77-.42,0-.14.08-.25.25-.32.16-.08.39-.12.69-.12h7.64c.3,0,.52.04.67.11.16.07.23.18.23.33,0,.2-.25.35-.74.46-.49.11-.87.25-1.14.43-.67.44-1.35,1.2-2.04,2.3-.69,1.09-1.4,2.54-2.13,4.34l-5.21,12.96c.38.48.81.83,1.3,1.05.49.22.73.38.73.49,0,.16-.22.34-.67.53-.45.19-.8.36-1.06.55-.46.32-.88.73-1.25,1.23-.38.5-.61.76-.69.76-.2,0-.42-.32-.66-.97-.02-.05-.03-.09-.03-.1l-6.35-17.52ZM5.54-165.43c0-3.76,1.12-6.86,3.34-9.27,2.23-2.42,5.08-3.62,8.55-3.62s6.38,1.21,8.6,3.62c2.23,2.42,3.34,5.51,3.34,9.27s-1.12,6.84-3.35,9.26c-2.24,2.43-5.1,3.64-8.59,3.64s-6.33-1.21-8.55-3.62c-2.23-2.42-3.34-5.51-3.34-9.27ZM9.28-165.43c0,4.25.64,7.32,1.93,9.19,1.28,1.88,3.36,2.81,6.23,2.81s4.97-.95,6.26-2.83c1.3-1.89,1.95-4.95,1.95-9.18s-.65-7.32-1.95-9.21c-1.29-1.89-3.39-2.83-6.26-2.83s-4.93.94-6.23,2.82c-1.29,1.88-1.93,4.95-1.93,9.22ZM-12.13-159.73c0,2.13.16,3.52.48,4.18.32.66.91,1.09,1.77,1.27.34.09.86.15,1.55.18.69.02,1.04.16,1.04.41,0,.18-.07.29-.2.35-.14.06-.45.09-.93.09h-10.27c-.46,0-.75-.03-.89-.09-.13-.06-.2-.18-.2-.35,0-.23.33-.37,1-.4.66-.04,1.16-.09,1.46-.16.84-.2,1.41-.62,1.72-1.28.3-.64.45-2.04.45-4.19v-11.43c0-2.13-.15-3.51-.45-4.16-.3-.64-.87-1.07-1.72-1.27-.28-.07-.77-.12-1.44-.16-.68-.05-1.02-.19-1.02-.46,0-.17.07-.28.2-.34.14-.06.44-.09.89-.09H-7.94c1.69,0,3.02.09,4,.25.98.16,1.84.44,2.58.84.96.52,1.72,1.23,2.27,2.1.54.87.82,1.82.82,2.85,0,1.8-.73,3.27-2.19,4.43-1.46,1.16-3.39,1.78-5.79,1.85l4.42,7.73c.45.79.94,1.44,1.47,1.94.52.51,1.12.9,1.8,1.17.52.21,1.1.35,1.74.42.64.07.96.21.96.39,0,.12-.07.22-.21.3-.14.08-.32.12-.54.12H-2.08c-.41,0-.84-.38-1.29-1.13-.07-.11-.12-.2-.15-.27l-6.22-10.57h-2.39v5.49ZM-6.74-166.25c1.49-.07,2.68-.59,3.55-1.57.88-.98,1.32-2.27,1.32-3.86s-.52-2.92-1.56-3.78c-1.03-.86-2.55-1.3-4.56-1.3-1.5,0-2.56.29-3.19.85-.64.57-.95,1.57-.95,2.98v6.87c.1,0,.25,0,.43.02.2.01.33.02.42.02.74,0,1.35-.09,1.84-.26.49-.18.91-.45,1.28-.84.25-.25.47-.62.66-1.09.2-.47.38-.7.54-.7.09,0,.16.04.21.11.04.07.06.18.06.31,0,.04,0,.09-.02.15-.01.06-.02.12-.02.15l-.1.65v.45c0,.22,0,.39.02.5.01.11.03.21.05.32ZM-24.01-161.14v3.98c0,.83.13,1.66.39,2.5.06.2.09.32.09.38,0,.09-.02.15-.06.2-.04.05-.11.07-.19.07-.05,0-.26-.07-.61-.21-.35-.14-.7-.2-1.06-.2-.43,0-1.62.31-3.54.92-1.93.62-3.68.93-5.26.93-3.41,0-6.17-1.16-8.29-3.48-2.11-2.33-3.17-5.36-3.17-9.11s1.11-7.07,3.33-9.53c2.23-2.47,5.06-3.71,8.5-3.71.76,0,1.62.11,2.59.31.97.21,1.56.31,1.77.31.7,0,1.21-.28,1.52-.84.31-.56.49-.84.53-.84.12,0,.23.05.32.13.09.09.16.23.24.41l2.95,7.24c.04.09.06.15.06.18,0,.04,0,.07,0,.11,0,.12-.03.21-.09.29-.05.07-.14.11-.25.11-.16,0-.51-.37-1.07-1.12-.43-.56-.79-1.03-1.09-1.41-.97-1.21-2.12-2.16-3.44-2.86-1.32-.7-2.64-1.06-3.96-1.06-2.72,0-4.8,1.15-6.24,3.45-1.43,2.3-2.16,5.63-2.16,10,0,3.35.71,5.94,2.14,7.78,1.42,1.83,3.42,2.75,5.99,2.75,2.3,0,4.07-.59,5.31-1.77,1.24-1.18,1.86-2.88,1.86-5.09,0-1.49-.2-2.54-.61-3.14-.41-.61-1.11-1-2.11-1.15-.29-.05-.69-.08-1.19-.11-.81-.04-1.21-.19-1.21-.45,0-.16.06-.26.18-.32.12-.06.46-.09,1.02-.09h9.91c.43,0,.7.03.8.09.1.06.15.16.15.32,0,.27-.36.42-1.09.47-.27.02-.47.04-.58.05-.83.11-1.44.45-1.83,1.02-.39.57-.58,1.4-.58,2.48Z"/>
  <path class="st1" d="M96.5-245.01c-2.5,2.31-4.54,4.71-4.57,7.58l2.24,1.41,2.34-1.72,2.34,1.72,2.24-1.41c-.04-2.86-2.07-5.27-4.57-7.58ZM96.5-233.36c-2.5,2.31-4.54,4.72-4.57,7.58l2.24,1.41,2.34-1.72,2.34,1.72,2.24-1.41c-.04-2.86-2.07-5.27-4.57-7.58ZM96.54-221.93c-2.63,2.29-4.62,4.97-5.17,8.51,2.18.61,3.95,1.95,5.17,4.29,1.23-2.34,3-3.68,5.17-4.29-.55-3.54-2.54-6.22-5.17-8.51ZM94.74-195.22h3.6v-3.6h-3.6v3.6ZM98.25-201.86h6.23c4.31,0,7.84-3.53,7.84-7.84v-1.41h-6.23c-4.32,0-7.85,3.53-7.85,7.85v1.41ZM101.17-221.97c1.97,2.09,2.98,4.58,3.37,7.33,4.02-1.47,6-4.3,5.54-8.76-4.21-.33-7.4,0-8.9,1.44ZM100.95-233.44c1.73,1.75,2.86,3.73,3.31,5.97,2.58-1.5,3.91-4.04,3.83-7.72-2.76-.37-5.12.26-7.14,1.75ZM94.83-201.86h-6.24c-4.31,0-7.84-3.53-7.84-7.84v-1.41h6.23c4.31,0,7.84,3.53,7.84,7.85v1.41ZM91.9-221.97c-1.97,2.09-2.98,4.58-3.36,7.33-4.02-1.47-6-4.3-5.54-8.76,4.21-.33,7.39,0,8.9,1.44ZM91.57-192.1h9.93v-6.67h3.11c6.05,0,11-4.95,11-11v-4.58h-5.41c2.07-2,3.36-4.81,3.36-7.89v-4.58h-4.69c1.79-1.92,2.89-4.49,2.89-7.31v-4.46h-7.43c-.58-4.54-3.79-7.71-7.92-10.41-4.14,2.92-7.19,6.24-7.86,10.41h-7.25v4.46c0,2.82,1.1,5.39,2.9,7.31h-4.7v4.58c0,3.09,1.29,5.89,3.36,7.89h-5.41v4.58c0,6.05,4.95,11,11,11h3.11v6.67ZM92.12-233.44c-1.73,1.75-2.86,3.73-3.31,5.97-2.58-1.5-3.91-4.04-3.83-7.72,2.76-.37,5.12.26,7.14,1.75Z"/>
</svg>